<svg xmlns="http://www.w3.org/2000/svg" viewBox="0 0 122.46 147.03">
  <style>
    path {
      fill: #000;
      transform: scale(0.62);
      transform-origin: center;
    }

    @media (prefers-color-scheme: dark) {
      path {
        fill: #fff;
      }

    }
  </style>
  <path
    d="M122.46,102.37c0,8.96-2.08,16.9-6.25,23.81-4.17,6.92-10.49,12.15-18.95,15.71-4.76,2.11-10.09,3.46-15.98,4.05-5.89,.59-11.41,.89-16.57,.89h-3.57c-1.19,0-2.38-.07-3.57-.2-9.66-.4-19.38-.59-29.17-.59-3.71,0-7.41,.16-11.11,.49-3.71,.33-7.48,.49-11.31,.49-.53,0-.99-.23-1.39-.69-.4-.46-.6-.95-.6-1.48,0-1.58,.63-2.54,1.89-2.87,1.26-.33,2.74-.62,4.47-.89,1.72-.26,3.31-1.05,4.76-2.37,1.45-1.32,2.31-3.82,2.58-7.51,.13-1.58,.2-3.16,.2-4.74v-4.74c0-16.73-.03-33.43-.1-50.1-.07-16.66-.1-33.36-.1-50.1,0-5.8-.99-9.35-2.98-10.67-1.98-1.32-5.69-1.98-11.11-1.98-.93,0-1.76-.33-2.48-.99-.73-.66-1.09-1.45-1.09-2.37C0,3.03,1.39,1.78,4.17,1.78s5.36,.13,8.14,.4c2.78,.27,5.49,.4,8.14,.4,6.75,0,13.5-.23,20.24-.69,6.75-.46,13.5-.95,20.24-1.48,1.32-.13,2.61-.23,3.87-.3,1.26-.06,2.48-.1,3.67-.1,7.54,0,14.65,.89,21.34,2.67,6.68,1.78,12.11,5.04,16.27,9.78,4.17,4.74,6.25,11.59,6.25,20.55,0,5.14-1.36,10.01-4.07,14.62-2.71,4.61-6.12,8.43-10.22,11.46-1.32,1.19-2.78,2.21-4.37,3.06-1.59,.86-3.24,1.68-4.96,2.47-.27,.13-.76,.36-1.49,.69-.73,.33-1.09,.76-1.09,1.28,0,.4,.36,.69,1.09,.89,.73,.2,1.22,.36,1.49,.49,2.11,.53,4.17,1.09,6.15,1.68s3.97,1.42,5.95,2.47c6.08,2.9,11.21,6.92,15.38,12.06,4.17,5.14,6.25,11.2,6.25,18.18ZM84.15,35.18c0-7.77-1.16-13.67-3.47-17.69-2.32-4.02-5.85-6.72-10.62-8.1s-10.72-2.07-17.86-2.07c-1.32,0-2.65,.03-3.97,.1-1.32,.07-2.65,.17-3.97,.3v58.5h5.76c2.65,0,5.56-.1,8.73-.3,3.18-.2,6.25-.76,9.23-1.68,2.98-.92,5.46-2.37,7.44-4.35,3.04-3.03,5.26-6.85,6.65-11.46,1.39-4.61,2.08-9.02,2.08-13.24Zm9.92,70.55c0-5.27-.56-10.5-1.69-15.71-1.13-5.2-3.31-9.58-6.55-13.14-3.24-3.56-8.17-5.34-14.79-5.34-4.5,0-8.96,.1-13.4,.3-4.43,.2-8.9,.3-13.4,.3v61.86c0,3.69,.96,5.86,2.88,6.52,1.92,.66,4.33,.99,7.24,.99h4.86c1.65,0,3.27-.06,4.86-.2,6.61-.4,12.14-2.24,16.57-5.53,4.43-3.29,7.77-7.57,10.02-12.85,2.25-5.27,3.37-11,3.37-17.19Z" />
</svg>
